<svg width="32" height="32" viewBox="0 0 32 32" fill="none" xmlns="http://www.w3.org/2000/svg">
    <path
        d="M20.6667 8.26829C22.1333 8.26829 23.3333 7.08293 23.3333 5.63415C23.3333 4.18537 22.1333 3 20.6667 3C19.2 3 18 4.18537 18 5.63415C18 7.08293 19.2 8.26829 20.6667 8.26829ZM6.66667 16.8293C2.93333 16.8293 0 19.7268 0 23.4146C0 27.1024 2.93333 30 6.66667 30C10.4 30 13.3333 27.1024 13.3333 23.4146C13.3333 19.7268 10.4 16.8293 6.66667 16.8293ZM6.66667 28.0244C4.13333 28.0244 2 25.9171 2 23.4146C2 20.9122 4.13333 18.8049 6.66667 18.8049C9.2 18.8049 11.3333 20.9122 11.3333 23.4146C11.3333 25.9171 9.2 28.0244 6.66667 28.0244ZM14.4 14.8537L17.6 11.6927L18.6667 12.7463C20.4 14.4585 22.6667 15.5122 25.4667 15.5122V12.878C23.4667 12.878 21.8667 12.0878 20.6667 10.9024L18.1333 8.4C17.4667 7.87317 16.8 7.60976 16 7.60976C15.2 7.60976 14.5333 7.87317 14.1333 8.4L10.4 12.0878C9.86667 12.6146 9.6 13.2732 9.6 13.9317C9.6 14.722 9.86667 15.3805 10.4 15.7756L14.6667 19.4634V26.0488H17.3333V17.8829L14.4 14.8537ZM25.3333 16.8293C21.6 16.8293 18.6667 19.7268 18.6667 23.4146C18.6667 27.1024 21.6 30 25.3333 30C29.0667 30 32 27.1024 32 23.4146C32 19.7268 29.0667 16.8293 25.3333 16.8293ZM25.3333 28.0244C22.8 28.0244 20.6667 25.9171 20.6667 23.4146C20.6667 20.9122 22.8 18.8049 25.3333 18.8049C27.8667 18.8049 30 20.9122 30 23.4146C30 25.9171 27.8667 28.0244 25.3333 28.0244Z"
        fill="#FF0101" />
</svg>