<svg id="Layer_1" data-name="Layer 1" xmlns="http://www.w3.org/2000/svg" viewBox="0 0 177.22 57.7">
    <defs>
        <style>
            .cls-1 {
                fill: #e52421;
            }

            .cls-2 {
                fill: #e30b13;
            }
        </style>
    </defs>
    <path class="cls-1"
        d="M250.71,219.85a28.89,28.89,0,0,0-21.38,48l13.33-15.92,9.18-14.33-5.34-2.72-7.73,7a1.73,1.73,0,0,1-2.52-.12,1.76,1.76,0,0,1,.13-2.54l8.55-7.8a1.79,1.79,0,0,1,2-.25l10.24,5.2a30.71,30.71,0,0,1,3.08,2.72l3.46,6.79,7.16-4.31a1.77,1.77,0,0,1,2.46.63,1.79,1.79,0,0,1-.63,2.47l-8.61,5.2a1.8,1.8,0,0,1-1,.26,1.77,1.77,0,0,1-1.51-.83l-3.77-6L251.78,253l6.72,1.58a2.21,2.21,0,0,1,1.64,1.34,2.39,2.39,0,0,1-.26,2.15l-7.66,12.24a2.29,2.29,0,0,1-3,.7,2.31,2.31,0,0,1-.88-3.17l6-9.45-8.74-2-12.76,14.87a28.32,28.32,0,0,0,17.92,6.37,28.85,28.85,0,0,0,0-57.7ZM263,236.27a4.82,4.82,0,1,1,4.77-4.82A4.8,4.8,0,0,1,263,236.27Z"
        transform="translate(-222.11 -219.85)" />
    <path class="cls-2"
        d="M293.62,256.12A5.92,5.92,0,0,1,291,253.9a6.42,6.42,0,0,1-1-3.3h3a3.86,3.86,0,0,0,1.32,2.67,4.6,4.6,0,0,0,3.14,1,4.82,4.82,0,0,0,2.7-.7,2.36,2.36,0,0,0,1.07-2,2.09,2.09,0,0,0-.56-1.52,3.48,3.48,0,0,0-1.51-.82c-.63-.19-1.57-.38-2.77-.64h-.12a11.71,11.71,0,0,1-3-.82,5.59,5.59,0,0,1-2.07-1.59,4.63,4.63,0,0,1-.76-2.79,4.87,4.87,0,0,1,.82-2.85,6,6,0,0,1,2.33-2,8.34,8.34,0,0,1,3.39-.69,7.76,7.76,0,0,1,3.52.76,5.63,5.63,0,0,1,2.45,2,5,5,0,0,1,.94,3H301a3.53,3.53,0,0,0-1.26-2.29,4.19,4.19,0,0,0-2.7-.88,4.48,4.48,0,0,0-2.58.69,2.32,2.32,0,0,0-.94,2,1.92,1.92,0,0,0,.57,1.46,4.19,4.19,0,0,0,1.5.82c.63.19,1.51.38,2.71.64a16.46,16.46,0,0,1,3.08.82,4.84,4.84,0,0,1,2.13,1.59,4.29,4.29,0,0,1,.82,2.79,5.24,5.24,0,0,1-.88,2.91,5.56,5.56,0,0,1-2.45,2,7.92,7.92,0,0,1-3.52.7A7.44,7.44,0,0,1,293.62,256.12Z"
        transform="translate(-222.11 -219.85)" />
    <path class="cls-2"
        d="M317.19,243.82a6,6,0,0,1,2.26,2.41,7.88,7.88,0,0,1,.82,3.74,7.35,7.35,0,0,1-.82,3.61,6.26,6.26,0,0,1-2.26,2.48,6.35,6.35,0,0,1-3.27.88,5.6,5.6,0,0,1-3-.76,5,5,0,0,1-1.82-2l.37-.63v8.62h-2.82v-19h2.45l.56,3.36-.63-.63a7.72,7.72,0,0,1,1.89-2.09,5.37,5.37,0,0,1,3-.76A6.41,6.41,0,0,1,317.19,243.82ZM311.34,246a3.36,3.36,0,0,0-1.38,1.59,5.51,5.51,0,0,0-.51,2.34,5.76,5.76,0,0,0,.51,2.41,4.28,4.28,0,0,0,1.38,1.65,3.79,3.79,0,0,0,2.07.57,3.94,3.94,0,0,0,2.08-.57,3.69,3.69,0,0,0,1.38-1.58,5.52,5.52,0,0,0,.5-2.35,5.44,5.44,0,0,0-.5-2.34,3.36,3.36,0,0,0-1.38-1.59,3.94,3.94,0,0,0-2.08-.57A2.82,2.82,0,0,0,311.34,246Z"
        transform="translate(-222.11 -219.85)" />
    <path class="cls-2"
        d="M325.36,256.06a5.81,5.81,0,0,1-2.45-2.48A7.62,7.62,0,0,1,322,250a7.7,7.7,0,0,1,.88-3.68,5.59,5.59,0,0,1,2.45-2.41,7.48,7.48,0,0,1,3.58-.89,7.14,7.14,0,0,1,3.58.89,6,6,0,0,1,2.45,2.41,8.13,8.13,0,0,1,0,7.36,6.19,6.19,0,0,1-2.45,2.47,7.51,7.51,0,0,1-3.58.89A8,8,0,0,1,325.36,256.06ZM331,253.9a3.43,3.43,0,0,0,1.39-1.59,5.59,5.59,0,0,0,.5-2.34,5.67,5.67,0,0,0-.5-2.35A3.41,3.41,0,0,0,331,246a3.93,3.93,0,0,0-2.07-.57,3.8,3.8,0,0,0-2.08.57,3.44,3.44,0,0,0-1.38,1.58A5.67,5.67,0,0,0,325,250a5.59,5.59,0,0,0,.5,2.34,3.85,3.85,0,0,0,1.38,1.59,3.94,3.94,0,0,0,2.08.57A3.76,3.76,0,0,0,331,253.9Z"
        transform="translate(-222.11 -219.85)" />
    <path class="cls-2"
        d="M340.63,243.18l.5,3.36-.56-.63a5,5,0,0,1,1.57-2,4.41,4.41,0,0,1,2.76-.69h.63v2.66h-1.25a3,3,0,0,0-2.58,1.14,5.4,5.4,0,0,0-.82,3v6.85h-2.83v-13.7Z"
        transform="translate(-222.11 -219.85)" />
    <path class="cls-2"
        d="M347.42,239.32h2.83v3.8h3.26v2.47h-3.26v7.1a1.65,1.65,0,0,0,.31,1.15c.19.25.57.31,1.07.31h2.2v2.54h-2.77a3.8,3.8,0,0,1-2.76-.89,3.87,3.87,0,0,1-.88-2.79Z"
        transform="translate(-222.11 -219.85)" />
    <path class="cls-2"
        d="M358.54,256.12A5.89,5.89,0,0,1,356,253.9a6.33,6.33,0,0,1-1-3.3h3a4,4,0,0,0,1.32,2.67,4.64,4.64,0,0,0,3.15,1,4.82,4.82,0,0,0,2.7-.7,2.36,2.36,0,0,0,1.07-2,2.06,2.06,0,0,0-.57-1.52,3.42,3.42,0,0,0-1.51-.82c-.62-.19-1.57-.38-2.76-.64h-.13a11.75,11.75,0,0,1-2.95-.82,5.7,5.7,0,0,1-2.08-1.59,4.7,4.7,0,0,1-.75-2.79,4.87,4.87,0,0,1,.82-2.85,6,6,0,0,1,2.32-2,8.42,8.42,0,0,1,3.4-.69,7.76,7.76,0,0,1,3.52.76,5.63,5.63,0,0,1,2.45,2,5,5,0,0,1,.94,3h-3a3.53,3.53,0,0,0-1.26-2.29,4.19,4.19,0,0,0-2.7-.88,4.48,4.48,0,0,0-2.58.69,2.32,2.32,0,0,0-.94,2,2,2,0,0,0,.56,1.46,4.24,4.24,0,0,0,1.51.82c.63.19,1.51.38,2.7.64a16.25,16.25,0,0,1,3.08.82,4.93,4.93,0,0,1,2.14,1.59,4.29,4.29,0,0,1,.82,2.79,5.32,5.32,0,0,1-.88,2.91,5.56,5.56,0,0,1-2.45,2,7.92,7.92,0,0,1-3.52.7A7.63,7.63,0,0,1,358.54,256.12Z"
        transform="translate(-222.11 -219.85)" />
    <path class="cls-2"
        d="M374.38,256.06a6.11,6.11,0,0,1-2.45-2.41,7.73,7.73,0,0,1-.88-3.68,7.52,7.52,0,0,1,.82-3.68,6.11,6.11,0,0,1,2.32-2.41,6.87,6.87,0,0,1,3.46-.89,7.63,7.63,0,0,1,3.46.76,5.4,5.4,0,0,1,2.32,2.29,6.85,6.85,0,0,1,.88,3.42V250a1.85,1.85,0,0,1-.06.57H374.07v.13a5.05,5.05,0,0,0,.5,2,3.28,3.28,0,0,0,1.32,1.34,4,4,0,0,0,1.95.5,3.52,3.52,0,0,0,2.2-.63,2.89,2.89,0,0,0,1.19-1.78h2.89a5.47,5.47,0,0,1-1.06,2.41,7,7,0,0,1-2.08,1.72,7.16,7.16,0,0,1-2.89.63A6.89,6.89,0,0,1,374.38,256.06Zm1.7-10.34a3.13,3.13,0,0,0-1.26,1.14,3.94,3.94,0,0,0-.63,1.65h7.23a3.46,3.46,0,0,0-1.13-2.35,3.65,3.65,0,0,0-2.51-.82A2.61,2.61,0,0,0,376.08,245.72Z"
        transform="translate(-222.11 -219.85)" />
    <path class="cls-2"
        d="M389.4,256.06a6.18,6.18,0,0,1-2.45-2.41,7.84,7.84,0,0,1-.88-3.68,7.52,7.52,0,0,1,.82-3.68,6.14,6.14,0,0,1,2.33-2.41,6.81,6.81,0,0,1,3.45-.89,7.63,7.63,0,0,1,3.46.76,5.4,5.4,0,0,1,2.32,2.29,6.85,6.85,0,0,1,.88,3.42V250a1.85,1.85,0,0,1-.06.57H389.09v.13a5.05,5.05,0,0,0,.5,2,3.4,3.4,0,0,0,1.32,1.34,4,4,0,0,0,1.95.5,3.52,3.52,0,0,0,2.2-.63,2.85,2.85,0,0,0,1.19-1.78h2.9a5.61,5.61,0,0,1-1.07,2.41,7,7,0,0,1-2.08,1.72,7.16,7.16,0,0,1-2.89.63A7,7,0,0,1,389.4,256.06Zm1.7-10.34a3.13,3.13,0,0,0-1.26,1.14,3.8,3.8,0,0,0-.62,1.65h7.22a3.46,3.46,0,0,0-1.13-2.35,3.65,3.65,0,0,0-2.51-.82A2.61,2.61,0,0,0,391.1,245.72Z"
        transform="translate(-222.11 -219.85)" />
</svg>