<svg id="Layer_1" data-name="Layer 1" xmlns="http://www.w3.org/2000/svg" viewBox="0 0 57.2 57.7">
    <defs>
        <style>
            .cls-1 {
                fill: #e52421;
            }
        </style>
    </defs>
    <path class="cls-1"
        d="M250.71,219.85a28.89,28.89,0,0,0-21.38,48l13.33-15.92,9.18-14.33-5.34-2.72-7.73,7a1.73,1.73,0,0,1-2.52-.12,1.76,1.76,0,0,1,.13-2.54l8.55-7.8a1.79,1.79,0,0,1,2-.25l10.24,5.2a30.71,30.71,0,0,1,3.08,2.72l3.46,6.79,7.16-4.31a1.77,1.77,0,0,1,2.46.63,1.79,1.79,0,0,1-.63,2.47l-8.61,5.2a1.8,1.8,0,0,1-1,.26,1.77,1.77,0,0,1-1.51-.83l-3.77-6L251.78,253l6.72,1.58a2.21,2.21,0,0,1,1.64,1.34,2.39,2.39,0,0,1-.26,2.15l-7.66,12.24a2.29,2.29,0,0,1-3,.7,2.31,2.31,0,0,1-.88-3.17l6-9.45-8.74-2-12.76,14.87a28.32,28.32,0,0,0,17.92,6.37,28.85,28.85,0,0,0,0-57.7ZM263,236.27a4.82,4.82,0,1,1,4.77-4.82A4.8,4.8,0,0,1,263,236.27Z"
        transform="translate(-222.11 -219.85)" />
</svg>